# xmcd
#
# Track frame offsets:
#	150
#	15211
#	39055
#	63109
#	79306
#	92782
#	108883
#	132296
#	146908
#	173344
#	199204
#	222137
#	246479
#
# Disc length: 3643 seconds
#
# Revision: 0
# Processed by: cddbd v1.5.1PL2 Copyright (c) Steve Scherf et al.
# Submitted via: audiograbber 1.83.01
#
DISCID=a60e390d
DTITLE=DJ Ostkurve - Das Partyalbum
DYEAR=1900
DGENRE=Acid
TTITLE0=Darlin'
TTITLE1=Nachts Woll'n Wir Party (Extended)
TTITLE2=Running Bear (Extended)
TTITLE3=Loop Di Love
TTITLE4=Zicke Zacke
TTITLE5=Looking For Freedom
TTITLE6=Codo (Düse Im Sauseschritt...)
TTITLE7=Technobass
TTITLE8=Party Megamix
TTITLE9=Die Hände Zum Himmel (DJ Ostkurve Remix)
TTITLE10=Butterfly (DJ Ostkurve Remix)
TTITLE11=Jingle Bells (Extended)
TTITLE12=Darlin' (Extended)
EXTD=
EXTT0=
EXTT1=
EXTT2=
EXTT3=
EXTT4=
EXTT5=
EXTT6=
EXTT7=
EXTT8=
EXTT9=
EXTT10=
EXTT11=
EXTT12=
PLAYORDER=
